<svg width="20" height="23" viewBox="0 0 20 23" fill="none" xmlns="http://www.w3.org/2000/svg">
<circle cx="10" cy="13" r="10" fill="#F65F5F"/>
<path d="M16.6613 2.68415C16.4441 2.21966 16.1309 1.79875 15.7392 1.44497C15.3472 1.09014 14.8851 0.80816 14.3779 0.614365C13.852 0.412615 13.288 0.309347 12.7185 0.310557C11.9195 0.310557 11.1401 0.512597 10.4627 0.894228C10.3006 0.98552 10.1467 1.08579 10.0008 1.19504C9.85495 1.08579 9.701 0.98552 9.53894 0.894228C8.86155 0.512597 8.08206 0.310557 7.28313 0.310557C6.70783 0.310557 6.15036 0.412326 5.62368 0.614365C5.11483 0.808922 4.65621 1.08878 4.26241 1.44497C3.87023 1.79835 3.55695 2.21936 3.34032 2.68415C3.11506 3.16755 3 3.68088 3 4.20917C3 4.70754 3.1102 5.22686 3.32897 5.75515C3.5121 6.19665 3.77463 6.6546 4.11008 7.11705C4.64162 7.84888 5.37249 8.61214 6.28 9.38588C7.78388 10.6685 9.27317 11.5544 9.33637 11.5904L9.72045 11.8178C9.8906 11.9181 10.1094 11.9181 10.2795 11.8178L10.6636 11.5904C10.7268 11.5529 12.2145 10.6685 13.72 9.38588C14.6275 8.61214 15.3584 7.84888 15.8899 7.11705C16.2254 6.6546 16.4895 6.19665 16.671 5.75515C16.8898 5.22686 17 4.70754 17 4.20917C17.0016 3.68088 16.8865 3.16755 16.6613 2.68415Z" fill="#FDCE77"/>
</svg>
